<svg id="Layer_1" data-name="Layer 1" xmlns="http://www.w3.org/2000/svg" viewBox="0 0 162.31 393.76"><defs><style>.cls-1{fill:#fff;}.cls-2{fill:#fff800;}</style></defs><title>DESCO_Wordmark</title><g id="Testing"><path class="cls-1" d="M278.12,270.3v27c0,22.87-11.83,29.26-29.26,29.26h-27V99.76h27c17.37,0,29.26,6.4,29.26,29.26v23.91h53V120.79c0-48.46-32-67.67-80.48-67.67H168.84V373.18h81.84c48.47,0,80.48-19.21,80.48-67.67V270.3Z" transform="translate(-168.84 -53.12)"/><rect class="cls-2" x="109.27" y="133.51" width="53.04" height="53.04"/></g><path class="cls-1" d="M196.91,402.6v31.95c0,8.38-5.54,11.7-13.92,11.7H168.84V390.9H183C191.37,390.9,196.91,394.22,196.91,402.6ZM182.68,399H178v39.21h4.67c3,0,5.06-1.1,5.06-5.06V404C187.74,400.08,185.68,399,182.68,399Z" transform="translate(-168.84 -53.12)"/><path class="cls-1" d="M204.5,446.25V390.9h24.27V399h-15.1v15.18h12.65v8.06H213.67v16H229v8.07Z" transform="translate(-168.84 -53.12)"/><path class="cls-1" d="M252.25,410.67v-7.75c0-3.48-2-4.74-4.66-4.74s-4.67,1.26-4.67,4.74v3.8c0,2.84,1,4.11,3.56,5.61L253,416c5.3,3,8.46,5.45,8.46,11.38v8c0,8.53-5.29,11.54-13.67,11.54h-.16c-8.38,0-13.68-2.93-13.68-11.54v-9.65h9v8.38c0,3.4,2,4.9,4.75,4.9s4.74-1.5,4.74-4.9v-4.35c0-2.84-.87-4.27-3.64-5.77l-6.4-3.64c-5.38-3.08-8.46-5.61-8.46-11.38v-7.27c0-8.23,6-11.39,13.6-11.39h.16c7.59,0,13.6,3.16,13.6,11.39v9Z" transform="translate(-168.84 -53.12)"/><path class="cls-1" d="M295.74,435.18c0,8.54-5.54,11.7-13.92,11.7h-.15c-8.39,0-13.92-3.09-13.92-11.7V402c0-8.22,5.53-11.7,13.92-11.7h.15c8.38,0,13.92,3.48,13.92,11.7v10.12h-9.17V403.4c0-3.88-1.9-5.06-4.83-5.06s-4.82,1.18-4.82,5.06v30.35c0,3.88,1.9,5.06,4.82,5.06s4.83-1.18,4.83-5.06v-10h9.17Z" transform="translate(-168.84 -53.12)"/><path class="cls-1" d="M316.61,390.27h.63c8.38,0,13.92,3.32,13.92,11.7v33.21c0,8.38-5.54,11.7-13.92,11.7h-.63c-8.38,0-13.91-3.32-13.91-11.7V402C302.7,393.51,308.23,390.27,316.61,390.27Zm.32,48.54c3,0,5.06-1.1,5.06-5.06V403.4c0-4-2.06-5.06-5.06-5.06s-5.06,1.1-5.06,5.06v30.35C311.87,437.71,313.92,438.81,316.93,438.81Z" transform="translate(-168.84 -53.12)"/></svg>