<svg xmlns="http://www.w3.org/2000/svg" viewBox="0 0 500 500"><defs><style>.cls-1{fill:#fff;}.cls-2{fill:#fff800;}</style></defs><title>DescoLogoSVG</title><g id="Testing"><path class="cls-1" d="M278.05,269.92v26.9c0,22.81-11.86,29.2-29.19,29.2H222V99.76h26.91c17.33,0,29.19,6.39,29.19,29.2v23.86H331V120.75c0-48.36-31.93-67.51-80.29-67.51H169V372.55h81.65C299,372.55,331,353.39,331,305V269.92Z"/><rect class="cls-2" x="278.05" y="186.43" width="52.91" height="52.91"/><path class="cls-1" d="M197.11,403.17v31.91c0,8.38-5.53,11.7-13.9,11.7H169.06v-55.3h14.15C191.58,391.48,197.11,394.8,197.11,403.17Zm-14.22-3.63h-4.66v39.18h4.66c3,0,5.05-1.11,5.05-5.06V404.59C187.94,400.64,185.89,399.54,182.89,399.54Z"/><path class="cls-1" d="M204.69,446.78v-55.3h24.25v8.06H213.86V414.7H226.5v8.06H213.86v16h15.32v8.06Z"/><path class="cls-1" d="M252.41,411.23v-7.74c0-3.48-2-4.74-4.66-4.74s-4.66,1.26-4.66,4.74v3.79c0,2.84.94,4.11,3.55,5.61l6.48,3.63c5.29,3,8.45,5.45,8.45,11.38v8c0,8.54-5.29,11.54-13.66,11.54h-.16c-8.38,0-13.67-2.92-13.67-11.54v-9.63h9v8.37c0,3.4,2,4.9,4.74,4.9s4.74-1.5,4.74-4.9v-4.34c0-2.85-.87-4.27-3.64-5.77l-6.4-3.63c-5.37-3.09-8.45-5.61-8.45-11.38v-7.27c0-8.21,6-11.37,13.59-11.37h.16c7.58,0,13.58,3.16,13.58,11.37v9Z"/><path class="cls-1" d="M295.86,435.72c0,8.53-5.53,11.69-13.91,11.69h-.15c-8.38,0-13.91-3.08-13.91-11.69V402.54c0-8.22,5.53-11.69,13.91-11.69H282c8.38,0,13.91,3.47,13.91,11.69v10.11h-9.17V404c0-3.87-1.89-5-4.81-5s-4.82,1.18-4.82,5v30.33c0,3.88,1.89,5.06,4.82,5.06s4.81-1.18,4.81-5.06v-10h9.17Z"/><path class="cls-1" d="M316.71,390.85h.64c8.37,0,13.9,3.32,13.9,11.69v33.18c0,8.37-5.53,11.69-13.9,11.69h-.64c-8.37,0-13.9-3.32-13.9-11.69V402.54C302.81,394.09,308.34,390.85,316.71,390.85Zm.32,48.5c3,0,5.06-1.11,5.06-5.06V404c0-3.95-2.06-5-5.06-5S312,400,312,404v30.33C312,438.24,314,439.35,317,439.35Z"/></g></svg>