<svg xmlns="http://www.w3.org/2000/svg" width="28" height="27" viewBox="0 0 28 27">
  <g id="Group_56" data-name="Group 56" transform="translate(-9730 -6079)">
    <ellipse id="Ellipse_16" data-name="Ellipse 16" cx="14" cy="13.5" rx="14" ry="13.5" transform="translate(9730 6079)" fill="#fff"/>
    <g id="_002-instagram" data-name="002-instagram" transform="translate(9736.206 6084.167)">
      <path id="Path_80" data-name="Path 80" d="M12.041,0H4.469A4.475,4.475,0,0,0,0,4.469v7.573a4.474,4.474,0,0,0,4.469,4.469h7.573a4.474,4.474,0,0,0,4.469-4.469V4.469A4.475,4.475,0,0,0,12.041,0Zm3.5,12.042a3.505,3.505,0,0,1-3.5,3.5H4.469a3.505,3.505,0,0,1-3.5-3.5V4.469a3.505,3.505,0,0,1,3.5-3.5h7.573a3.505,3.505,0,0,1,3.5,3.5Zm0,0" transform="translate(0.001 0)" fill="#2f2f3f"/>
      <path id="Path_81" data-name="Path 81" d="M120.519,116a4.515,4.515,0,1,0,4.515,4.515A4.52,4.52,0,0,0,120.519,116Zm0,8.061a3.547,3.547,0,1,1,3.547-3.547A3.551,3.551,0,0,1,120.519,124.065Zm0,0" transform="translate(-112.263 -112.263)" fill="#2f2f3f"/>
      <path id="Path_82" data-name="Path 82" d="M359.311,66.285a1.334,1.334,0,1,0,1.334,1.334A1.336,1.336,0,0,0,359.311,66.285Zm0,1.7a.366.366,0,1,1,.366-.366A.367.367,0,0,1,359.311,67.985Zm0,0" transform="translate(-346.432 -64.148)" fill="#2f2f3f"/>
    </g>
  </g>
</svg>
