<svg width="366" height="46" viewBox="0 0 366 46" fill="none" xmlns="http://www.w3.org/2000/svg">
<path d="M45.0332 45.3234V13.3701H53.5403V16.866C54.5753 15.4758 55.8172 14.4332 57.2661 13.7381C58.7564 13.0021 60.3916 12.6341 62.1716 12.6341C62.9996 12.675 63.6826 12.7568 64.2208 12.8795C64.8004 12.9612 65.2971 13.1248 65.7111 13.3701V20.7298C65.0901 20.4436 64.4071 20.2391 63.6619 20.1165C62.9168 19.9529 62.1509 19.8712 61.3644 19.8712C59.7085 19.8712 58.1768 20.28 56.7693 21.0978C55.4032 21.9155 54.3269 23.1012 53.5403 24.655V45.3234H45.0332Z" fill="#3C3436"/>
<path d="M67.2533 29.3774C67.2533 27.0468 67.688 24.8798 68.5573 22.8764C69.468 20.832 70.6893 19.0739 72.221 17.6019C73.794 16.0891 75.6362 14.9034 77.7475 14.0447C79.8587 13.1861 82.1149 12.7568 84.5159 12.7568C86.917 12.7568 89.1731 13.1861 91.2843 14.0447C93.3956 14.9034 95.2171 16.0891 96.7488 17.6019C98.3219 19.0739 99.5431 20.832 100.412 22.8764C101.323 24.8798 101.779 27.0468 101.779 29.3774C101.779 31.708 101.323 33.8954 100.412 35.9398C99.5431 37.9433 98.3219 39.681 96.7488 41.1529C95.2171 42.6249 93.3956 43.7901 91.2843 44.6488C89.1731 45.5074 86.917 45.9367 84.5159 45.9367C82.1149 45.9367 79.8587 45.5074 77.7475 44.6488C75.6362 43.7901 73.794 42.6249 72.221 41.1529C70.6893 39.681 69.468 37.9433 68.5573 35.9398C67.688 33.8954 67.2533 31.708 67.2533 29.3774ZM84.5159 38.6384C86.9997 38.6384 89.111 37.7388 90.8497 35.9398C92.5884 34.1408 93.4577 31.9533 93.4577 29.3774C93.4577 26.7606 92.5884 24.5527 90.8497 22.7537C89.111 20.9547 86.9997 20.0551 84.5159 20.0551C82.0321 20.0551 79.9208 20.9547 78.1821 22.7537C76.4435 24.5527 75.5741 26.7606 75.5741 29.3774C75.5741 31.9533 76.4435 34.1408 78.1821 35.9398C79.9208 37.7388 82.0321 38.6384 84.5159 38.6384Z" fill="#3C3436"/>
<path d="M104.275 41.5209L108.498 35.9398C110.402 37.1664 112.203 38.0864 113.9 38.6997C115.598 39.2721 117.295 39.5583 118.992 39.5583C120.896 39.5583 122.407 39.2517 123.525 38.6384C124.684 38.0251 125.264 37.2073 125.264 36.1851C125.264 35.3674 124.933 34.7132 124.27 34.2225C123.649 33.7319 122.635 33.3844 121.228 33.1799L115.018 32.26C111.83 31.7693 109.388 30.7471 107.691 29.1934C106.035 27.6397 105.207 25.5749 105.207 22.999C105.207 19.9325 106.428 17.4793 108.871 15.6393C111.313 13.7994 114.583 12.8795 118.682 12.8795C121.041 12.8795 123.339 13.227 125.574 13.9221C127.81 14.5763 129.942 15.5576 131.97 16.866L127.872 22.2631C126.092 21.2409 124.394 20.4845 122.78 19.9938C121.166 19.4623 119.53 19.1965 117.874 19.1965C116.343 19.1965 115.101 19.4827 114.149 20.0551C113.238 20.6276 112.783 21.384 112.783 22.3244C112.783 23.183 113.114 23.8577 113.776 24.3483C114.48 24.7981 115.618 25.1252 117.191 25.3296L123.401 26.2495C126.547 26.6993 128.969 27.7215 130.666 29.3161C132.405 30.9107 133.274 32.9346 133.274 35.3878C133.274 36.9007 132.902 38.3113 132.156 39.6196C131.453 40.8871 130.48 41.9911 129.238 42.9315C127.996 43.8719 126.506 44.6079 124.767 45.1394C123.028 45.6709 121.145 45.9367 119.116 45.9367C116.177 45.9367 113.424 45.5687 110.858 44.8328C108.291 44.0559 106.097 42.952 104.275 41.5209Z" fill="#3C3436"/>
<path d="M166.812 41.3369C164.825 42.9315 162.775 44.0968 160.664 44.8328C158.594 45.5687 156.276 45.9367 153.709 45.9367C151.267 45.9367 148.97 45.5074 146.817 44.6488C144.706 43.7901 142.863 42.6249 141.29 41.1529C139.759 39.681 138.537 37.9433 137.627 35.9398C136.757 33.8954 136.323 31.708 136.323 29.3774C136.323 27.0877 136.737 24.9412 137.565 22.9377C138.434 20.8933 139.614 19.1352 141.104 17.6632C142.594 16.1504 144.354 14.9647 146.382 14.1061C148.452 13.2474 150.646 12.8181 152.964 12.8181C155.241 12.8181 157.352 13.2679 159.298 14.1674C161.285 15.026 162.982 16.2118 164.39 17.7246C165.839 19.2374 166.957 21.0569 167.743 23.183C168.571 25.2683 168.985 27.5375 168.985 29.9907V32.1986H144.892C145.471 34.2021 146.589 35.8172 148.245 37.0438C149.901 38.2704 151.847 38.8837 154.082 38.8837C155.49 38.8837 156.814 38.6588 158.056 38.209C159.298 37.7593 160.354 37.1255 161.223 36.3078L166.812 41.3369ZM152.778 19.7485C150.832 19.7485 149.156 20.3414 147.748 21.5271C146.341 22.6719 145.368 24.2256 144.83 26.1882H160.664C160.126 24.3074 159.133 22.7741 157.684 21.5884C156.276 20.3618 154.641 19.7485 152.778 19.7485Z" fill="#3C3436"/>
<path d="M183.541 45.3234L169.631 13.3701H178.883L187.763 34.6519L196.581 13.3701H205.647L191.737 45.3234H183.541Z" fill="#3C3436"/>
<path d="M213.227 9.5676C211.903 9.5676 210.764 9.09739 209.812 8.15699C208.86 7.21658 208.384 6.09219 208.384 4.7838C208.384 3.47541 208.86 2.35101 209.812 1.41061C210.764 0.470203 211.903 0 213.227 0C214.552 0 215.69 0.470203 216.643 1.41061C217.595 2.35101 218.071 3.47541 218.071 4.7838C218.071 6.09219 217.595 7.21658 216.643 8.15699C215.69 9.09739 214.552 9.5676 213.227 9.5676ZM217.512 13.3701V45.3234H209.005V13.3701H217.512Z" fill="#3C3436"/>
<path d="M232.672 0.551977V45.3234H224.165V2.3919L232.672 0.551977Z" fill="#3C3436"/>
<path d="M247.832 0.551977V45.3234H239.325V2.3919L247.832 0.551977Z" fill="#3C3436"/>
<path d="M283.484 41.3369C281.497 42.9315 279.448 44.0968 277.336 44.8328C275.266 45.5687 272.948 45.9367 270.382 45.9367C267.939 45.9367 265.642 45.5074 263.489 44.6488C261.378 43.7901 259.536 42.6249 257.962 41.1529C256.431 39.681 255.21 37.9433 254.299 35.9398C253.429 33.8954 252.995 31.708 252.995 29.3774C252.995 27.0877 253.409 24.9412 254.237 22.9377C255.106 20.8933 256.286 19.1352 257.776 17.6632C259.266 16.1504 261.026 14.9647 263.054 14.1061C265.124 13.2474 267.318 12.8181 269.636 12.8181C271.913 12.8181 274.025 13.2679 275.97 14.1674C277.957 15.026 279.655 16.2118 281.062 17.7246C282.511 19.2374 283.629 21.0569 284.415 23.183C285.243 25.2683 285.657 27.5375 285.657 29.9907V32.1986H261.564C262.144 34.2021 263.261 35.8172 264.917 37.0438C266.573 38.2704 268.519 38.8837 270.754 38.8837C272.162 38.8837 273.486 38.6588 274.728 38.209C275.97 37.7593 277.026 37.1255 277.895 36.3078L283.484 41.3369ZM269.45 19.7485C267.504 19.7485 265.828 20.3414 264.42 21.5271C263.013 22.6719 262.04 24.2256 261.502 26.1882H277.336C276.798 24.3074 275.805 22.7741 274.356 21.5884C272.948 20.3618 271.313 19.7485 269.45 19.7485Z" fill="#3C3436"/>
<path d="M305.903 13.3499V31.945C305.903 33.9907 306.501 35.6272 307.697 36.8546C308.935 38.082 310.564 38.6957 312.585 38.6957C314.029 38.6957 315.307 38.4298 316.421 37.8979C317.576 37.3251 318.525 36.5273 319.267 35.5045V13.3499H327.743V45.3237H319.267V42.7462C318.03 43.769 316.648 44.5668 315.122 45.1396C313.596 45.6715 311.946 45.9374 310.172 45.9374C306.46 45.9374 303.408 44.7509 301.015 42.3779C298.623 39.964 297.427 36.8955 297.427 33.1724V13.3499H305.903Z" fill="#0038FF"/>
<path d="M330.885 45.3237L343.259 29.0606L331.194 13.3499H341.031L348.146 22.8622L355.2 13.3499H364.728L352.849 28.9379L365.47 45.3237H355.571L347.961 35.1363L340.351 45.3237H330.885Z" fill="#0038FF"/>
<path d="M32.209 13.6394C14.2884 13.6394 -0.000427246 27.6296 -0.000427246 45.18H32.209V13.6394Z" fill="#FF0055"/>
</svg>
