<svg xmlns="http://www.w3.org/2000/svg" width="27" height="27" viewBox="0 0 27 27">
  <g id="Group_58" data-name="Group 58" transform="translate(-9792 -6079)">
    <circle id="Ellipse_18" data-name="Ellipse 18" cx="13.5" cy="13.5" r="13.5" transform="translate(9792 6079)" fill="#fff"/>
    <g id="_004-slack" data-name="004-slack" transform="translate(9796.656 6083.518)">
      <path id="Path_86" data-name="Path 86" d="M12.7,8.617a.557.557,0,0,0-.7-.351L8.5,9.434a.557.557,0,0,0-.351.706L9.281,13.5a.558.558,0,0,0,.7.351c3.06-1.075,4.1-1.105,3.84-1.873Zm-2.535,4.006-.775-2.309L11.817,9.5l.775,2.309Z" transform="translate(-2.093 -2.121)" fill="#2f2f3f"/>
      <path id="Path_87" data-name="Path 87" d="M15.309,8.064l-1.167.388-.775-2.3,1.159-.386a1.91,1.91,0,0,0-1.206-3.625l-1.165.388L11.747,1.3A1.914,1.914,0,0,0,8.116,2.512l.409,1.225L6.1,4.548,5.688,3.327A1.913,1.913,0,0,0,2.057,4.536L2.466,5.76l-1.157.383a1.907,1.907,0,0,0,.516,3.715c.376.05.668-.076,1.854-.477l.775,2.3-1.16.386a1.906,1.906,0,0,0,.487,3.711c.408.061.746-.088,1.882-.473l.412,1.232A1.914,1.914,0,0,0,9.7,15.319l-.409-1.225,2.435-.815.411,1.233a1.914,1.914,0,0,0,3.628-1.219l-.408-1.225,1.156-.385a1.907,1.907,0,0,0-1.207-3.618Zm.862,2.56-1.693.564a.557.557,0,0,0-.352.7l.582,1.747a.8.8,0,0,1-1.515.513L12.609,12.4a.558.558,0,0,0-.706-.352L8.411,13.215a.557.557,0,0,0-.351.7l.583,1.747a.8.8,0,0,1-1.515.512l-.586-1.753a.557.557,0,0,0-.7-.352,12.253,12.253,0,0,1-1.953.6.794.794,0,0,1-.244-1.545l1.694-.564a.558.558,0,0,0,.353-.706L4.557,8.5a.559.559,0,0,0-.7-.351,16.375,16.375,0,0,1-1.9.6L1.9,8.746A.794.794,0,0,1,1.656,7.2l1.69-.559A.557.557,0,0,0,3.7,5.936L3.115,4.19A.8.8,0,0,1,4.63,3.677L5.216,5.43a.558.558,0,0,0,.7.352L9.4,4.618a.557.557,0,0,0,.352-.7L9.174,2.167a.8.8,0,0,1,1.515-.512l.586,1.753a.556.556,0,0,0,.7.352L13.668,3.2a.8.8,0,0,1,.511,1.509l-1.693.564a.558.558,0,0,0-.353.706l1.13,3.358a.556.556,0,0,0,.7.351l1.69-.562a.794.794,0,0,1,.516,1.5Z" transform="translate(-0.004 -0.001)" fill="#2f2f3f"/>
    </g>
  </g>
</svg>
