<svg xmlns="http://www.w3.org/2000/svg" width="27" height="27" viewBox="0 0 27 27">
  <g id="Group_55" data-name="Group 55" transform="translate(-9697 -6079)">
    <circle id="Ellipse_15" data-name="Ellipse 15" cx="13.5" cy="13.5" r="13.5" transform="translate(9697 6079)" fill="#fff"/>
    <path id="_001-facebook" data-name="001-facebook" d="M6.744,17.811H3.892a.865.865,0,0,1-.864-.864V10.513H1.364A.865.865,0,0,1,.5,9.649V6.893a.865.865,0,0,1,.864-.864H3.028V4.648A4.7,4.7,0,0,1,4.271,1.28,4.477,4.477,0,0,1,7.572,0L9.747,0a.865.865,0,0,1,.862.864v2.56a.865.865,0,0,1-.864.864H8.281c-.447,0-.56.09-.585.117-.04.046-.088.174-.088.53V6.028H9.636a.878.878,0,0,1,.428.109.867.867,0,0,1,.444.756V9.649a.865.865,0,0,1-.864.864H7.609v6.434a.865.865,0,0,1-.864.864ZM4.072,16.767H6.564V10.046a.578.578,0,0,1,.577-.577H9.462v-2.4H7.141A.577.577,0,0,1,6.564,6.5V4.938a1.778,1.778,0,0,1,.349-1.221,1.77,1.77,0,0,1,1.367-.47H9.565v-2.2l-1.994,0a3.3,3.3,0,0,0-3.5,3.6V6.5a.578.578,0,0,1-.577.577H1.544v2.4H3.5a.577.577,0,0,1,.577.577ZM9.745,1.047h0Zm0,0" transform="translate(9705.128 6083.518)" fill="#2f2f3f"/>
  </g>
</svg>
