<svg xmlns="http://www.w3.org/2000/svg" width="27" height="27" viewBox="0 0 27 27">
  <g id="Group_57" data-name="Group 57" transform="translate(-9760 -6079)">
    <circle id="Ellipse_17" data-name="Ellipse 17" cx="13.5" cy="13.5" r="13.5" transform="translate(9760 6079)" fill="#fff"/>
    <g id="_003-linkedin" data-name="003-linkedin" transform="translate(9767.106 6083.518)">
      <path id="Path_83" data-name="Path 83" d="M3.774,151.625H1.053a.554.554,0,0,0-.553.553v10.255a.554.554,0,0,0,.553.553H3.774a.554.554,0,0,0,.553-.553V152.178A.554.554,0,0,0,3.774,151.625ZM3.38,162.039H1.447v-9.467H3.38Zm0,0" transform="translate(-0.484 -146.845)" fill="#2f2f3f"/>
      <path id="Path_84" data-name="Path 84" d="M1.929,0A1.929,1.929,0,1,0,3.859,1.929,1.932,1.932,0,0,0,1.929,0Zm0,2.912a.982.982,0,1,1,.982-.982A.983.983,0,0,1,1.929,2.912Zm0,0" fill="#2f2f3f"/>
      <path id="Path_85" data-name="Path 85" d="M165.534,152.831a3.53,3.53,0,0,0-2.328-.818,3.568,3.568,0,0,0-1.512.368v-.224a.528.528,0,0,0-.528-.528H158.4a.528.528,0,0,0-.528.528v10.3a.528.528,0,0,0,.528.528h2.825a.474.474,0,0,0,.474-.474v-6.144a.98.98,0,0,1,.937-.987.968.968,0,0,1,1,.966v6.174a.464.464,0,0,0,.464.464h2.715a.464.464,0,0,0,.464-.464V156.54a4.819,4.819,0,0,0-1.736-3.709Zm.789,9.212h-1.748v-5.691a1.914,1.914,0,0,0-3.827,0v5.691h-1.933v-9.467h1.933v.688h0a.473.473,0,0,0,.787.355,2.624,2.624,0,0,1,1.689-.658,2.581,2.581,0,0,1,1.7.6,3.874,3.874,0,0,1,1.4,2.982Zm0,0" transform="translate(-152.89 -146.849)" fill="#2f2f3f"/>
    </g>
  </g>
</svg>
